<svg width="26" height="26" fill="none" xmlns="http://www.w3.org/2000/svg"><path d="M.104 12.18c.289.842 1.108 1.393 1.95 1.428.395.058.696-.093 3.35-.975l1.758 5.224-2.635.876c-1.103.36-1.689 1.561-1.335 2.665.29.842 1.108 1.393 1.95 1.428.396.058.697-.093 3.35-.976l.911 2.728c.343.98 1.433 1.682 2.67 1.328 1.107-.36 1.688-1.556 1.334-2.665l-.911-2.728 5.432-1.817.91 2.728c.344.98 1.434 1.683 2.67 1.328 1.108-.36 1.689-1.555 1.335-2.665l-.911-2.728 2.634-.876c1.103-.348 1.69-1.55 1.329-2.652l-.002-.001c-.36-1.103-1.56-1.689-2.669-1.328l-2.634.876-1.759-5.224 2.635-.876c1.108-.36 1.689-1.556 1.334-2.665-.36-1.103-1.56-1.689-2.669-1.328l-2.636.877-.91-2.728C16.223.332 15.022-.254 13.914.106c-1.108.361-1.689 1.556-1.335 2.665l.912 2.728L8.07 7.31l-.91-2.727c-.361-1.104-1.562-1.69-2.67-1.33-1.108.361-1.689 1.556-1.335 2.665l.911 2.728-2.628.87C.33 9.875-.25 11.071.104 12.18zm14.71-2.66l1.757 5.236-5.426 1.817-1.758-5.235 5.426-1.818z" fill="#000"/></svg>