<svg width="130" height="142" fill="none" xmlns="http://www.w3.org/2000/svg"><path d="M69.683.23c-16.37 1.106-31.44 7.493-44.326 18.748-7.715 6.774-15.568 17.365-19.218 26.02C1.797 55.174 0 63.138 0 72.097c0 8.931 2.461 20.656 6.139 29.173 1.327 3.041 3.346 7.079 4.452 8.793.58.885 1.023 1.659 1.023 1.714 0 .083.83 1.3 1.825 2.71 5.005 6.969 11.116 12.775 17.89 17.006 2.213 1.41 7.328 4.01 8.49 4.341.083.028.58.222 1.133.471.553.248 2.296.884 3.872 1.41 15.457 5.226 37.606 4.867 52.925-.83 6.941-2.599 12.333-5.945 17.393-10.839 8.407-8.158 13.163-18.859 14.573-32.795.581-5.78.055-15.154-1.244-21.707-2.461-12.526-11.918-24.693-24.306-31.247-8.877-4.673-19.301-6.94-30.169-6.553-5.17.193-8.931.774-13.024 2.074-1.77.553-5.309 2.074-6.498 2.765L52.4 39.744c-1.244.636-4.756 3.346-6.747 5.171-1.714 1.576-4.756 5.254-6.139 7.41-3.567 5.531-6.11 12.776-6.553 18.749-1.078 14.628 5.364 28.703 16.591 36.307 5.392 3.622 12.775 5.89 19.357 5.917 2.737 0 7.853-.719 10.59-1.521 10.48-3.041 18.278-11.309 20.214-21.374.497-2.544.497-7.937 0-10.204C98.164 72.982 91.5 66.484 83.73 64.63c-2.544-.608-6.72-.719-8.793-.249-6.028 1.383-10.757 6.996-10.785 12.775 0 3.263 2.82 6.25 6 6.305 3.208.083 5.531-1.549 6.582-4.535l.58-1.715 1.3-.082c2.185-.139 4.093.58 5.89 2.24 2.046 1.852 2.572 3.069 2.6 5.723 0 3.872-1.134 6.886-3.678 9.596-2.876 3.069-6.443 4.7-11.586 5.336-5.918.747-12.084-.94-16.592-4.535-3.705-2.958-7.05-8.35-8.406-13.577-.995-3.76-1.216-9.346-.525-12.47.94-4.314 2.793-8.269 5.862-12.555 1.963-2.71 6.858-6.36 10.59-7.853 4.232-1.714 7.411-2.24 13.412-2.212 6.636 0 11.227.72 16.591 2.627 10.812 3.788 19.467 12.471 22.37 22.37 1.411 4.895 2.102 13.107 1.604 19.44-.829 10.507-3.954 18.361-9.872 24.776-1.244 1.355-4.811 4.175-6.912 5.475-12.942 7.908-38.52 9.18-54.309 2.682-11.448-4.728-19.854-12.609-25.66-24.029-5.42-10.702-7.937-23.643-6.582-33.957 1.41-10.701 6.25-21.43 13.826-30.638 1.106-1.328 5.31-5.669 6.83-7.051 2.074-1.88 7.051-5.42 10.038-7.162 8.931-5.199 17.67-7.66 29.31-8.296 3.65-.221 4.784-.553 6.195-1.88 1.3-1.244 1.963-2.793 1.963-4.729 0-2.792-1.714-5.088-4.618-6.138-1.161-.387-2.46-.415-7.272-.083z" fill="#046FB3"/></svg>