<svg width="12" height="11" fill="none" xmlns="http://www.w3.org/2000/svg"><path d="M9.257 7.413L7.51 7.09a.376.376 0 01-.32-.359v-.368c.114-.147.222-.343.334-.547.085-.155.214-.388.272-.443.338-.304.7-.682.81-1.174.1-.446 0-.678-.116-.861 0-.359 0-1.015-.136-1.488-.014-.57-.128-.893-.415-1.18C7.736.469 7.438.422 7.2.384a1.382 1.382 0 01-.272-.058A3.007 3.007 0 005.577 0c-1.056.037-2.35.65-2.783 1.754-.132.335-.119.885-.11 1.327l-.01.258c-.102.183-.202.415-.101.86.11.494.471.871.808 1.174.058.056.189.29.275.445.113.204.222.4.337.547v.367a.376.376 0 01-.321.36l-1.747.32C.81 7.618 0 8.525 0 9.57v.698c0 .404.359.733.799.733h9.585c.44 0 .8-.33.8-.733V9.57c0-1.045-.81-1.952-1.927-2.156z" fill="gray"/></svg>